{"accessors":[{"bufferView":0,"byteOffset":0,"componentType":5126,"count":282,"max":[0.324431,3.762871,0.517963],"min":[-0.605974,-0.384705,-0.51203],"normalized":false,"type":"VEC3"},{"bufferView":1,"byteOffset":0,"componentType":5126,"count":282,"max":[0.916461,0.999429,0.999969,1],"min":[-0.865332,-0.999736,-0.999837,1],"normalized":false,"type":"VEC4"},{"bufferView":2,"byteOffset":0,"componentType":5126,"count":282,"max":[0.999936,0.790501,0.998102],"min":[-0.999936,-1,-0.991635],"normalized":false,"type":"VEC3"},{"bufferView":3,"byteOffset":0,"componentType":5126,"count":282,"max":[0.992188,1],"min":[0.016739,0],"normalized":false,"type":"VEC2"},{"bufferView":4,"byteOffset":0,"componentType":5125,"count":282,"max":[281],"min":[0],"normalized":false,"type":"SCALAR"},{"bufferView":5,"byteOffset":0,"componentType":5126,"count":528,"max":[1.05,2.205,1.050003],"min":[-1.05,-1.47,-1.049997],"normalized":false,"type":"VEC3"},{"bufferView":6,"byteOffset":0,"componentType":5126,"count":528,"max":[0.999969,0.011222,0.999969,1],"min":[-0.934649,-0.011223,-0.939202,-1],"normalized":false,"type":"VEC4"},{"bufferView":7,"byteOffset":0,"componentType":5126,"count":528,"max":[1,0.303281,1],"min":[-1,-1,-0.999969],"normalized":false,"type":"VEC3"},{"bufferView":8,"byteOffset":0,"componentType":5126,"count":528,"max":[0.824219,0.785156],"min":[0.359375,0.015625],"normalized":false,"type":"VEC2"},{"bufferView":9,"byteOffset":0,"componentType":5126,"count":528,"max":[1,1],"min":[0,0],"normalized":false,"type":"VEC2"},{"bufferView":10,"byteOffset":0,"componentType":5125,"count":534,"max":[527],"min":[0],"normalized":false,"type":"SCALAR"}],"asset":{"generator":"Godot Engine v3.5.1.stable.arch_linux@unknown","version":"2.0"},"bufferViews":[{"buffer":0,"byteLength":3384,"byteOffset":0},{"buffer":0,"byteLength":4512,"byteOffset":3384},{"buffer":0,"byteLength":3384,"byteOffset":7896},{"buffer":0,"byteLength":2256,"byteOffset":11280},{"buffer":0,"byteLength":1128,"byteOffset":13536},{"buffer":0,"byteLength":6336,"byteOffset":14664},{"buffer":0,"byteLength":8448,"byteOffset":21000},{"buffer":0,"byteLength":6336,"byteOffset":29448},{"buffer":0,"byteLength":4224,"byteOffset":35784},{"buffer":0,"byteLength":4224,"byteOffset":40008},{"buffer":0,"byteLength":2136,"byteOffset":44232}],"buffers":[{"byteLength":46368,"uri":"tree_lod10.bin"}],"extensionsRequired":["KHR_texture_transform"],"extensionsUsed":["KHR_lights_punctual","KHR_texture_transform"],"images":[{"uri":"textures/MaterialTree008_albedo.png"}],"materials":[{"doubleSided":true,"name":"MaterialTree008","pbrMetallicRoughness":{"baseColorFactor":[1,1,1,1],"baseColorTexture":{"extensions":{"KHR_texture_transform":{"offset":[0,0],"scale":[1,1]}},"index":0},"metallicFactor":0,"roughnessFactor":0.5}}],"meshes":[{"extras":{"targetNames":[]},"primitives":[{"attributes":{"NORMAL":2,"POSITION":0,"TANGENT":1,"TEXCOORD_0":3},"indices":4,"material":0,"mode":4}]},{"extras":{"targetNames":[]},"primitives":[{"attributes":{"NORMAL":7,"POSITION":5,"TANGENT":6,"TEXCOORD_0":8,"TEXCOORD_1":9},"indices":10,"material":0,"mode":4}]}],"nodes":[{"children":[1,2],"extensions":{},"mesh":0,"name":"tree08"},{"extensions":{},"mesh":1,"name":"tree08_top","translation":[-0.000004,2.5,0]},{"children":[3],"extensions":{},"name":"StaticBody"},{"extensions":{},"name":"CollisionShape","translation":[0,0.941582,0]}],"scene":0,"scenes":[{"nodes":[0]}],"textures":[{"source":0}]}
