<svg height="16" viewBox="0 0 16 16" width="16" xmlns="http://www.w3.org/2000/svg"><path d="M 5.7333984,0.37506103 A 1.1256562,1.1256562 0 0 0 4.9880372,0.66589356 1.123625,1.123625 0 0 0 3.1107178,1.460083 1.1183437,1.1183437 0 0 0 3.9453125,2.5879517 0.17659375,0.17659375 0 0 1 4.07489,2.7600708 V 6.5358275 A 0.1765,0.1765 0 0 1 3.9453125,6.7078856 1.1184375,1.1184375 0 0 0 3.109375,7.8377075 a 1.123625,1.123625 0 0 0 1.8771972,0.7923584 1.1297812,1.1297812 0 0 0 0.75531,0.2908325 c 0.018312,0 0.03674,-4.375e-4 0.055115,-0.00134 A 1.125,1.125 0 0 0 6.0354003,6.7091056 0.177125,0.177125 0 0 1 5.9063109,6.5372306 V 2.7587891 A 0.177125,0.177125 0 0 1 6.0354003,2.5869141 1.127875,1.127875 0 0 0 6.8652344,1.4113159 1.1256562,1.1256562 0 0 0 5.7333984,0.37506103 Z M 4.8483275,2.5202026 A 0.15625,0.15625 0 0 1 5,2.6763916 V 2.84375 a 0.15625,0.15625 0 0 1 -0.3125,0 V 2.6763916 a 0.15625,0.15625 0 0 1 0.1608275,-0.156189 z m 0,0.8076783 A 0.15625,0.15625 0 0 1 5,3.4840697 v 1.8645022 a 0.15625,0.15625 0 0 1 -0.3125,0 V 3.4840697 A 0.15625,0.15625 0 0 1 4.8483275,3.3278809 Z M 7.6808472,4.7236328 A 0.15625044,0.15625044 0 0 0 7.6416622,5.0321044 4.1346562,4.1346562 0 0 1 9.6488035,6.1504516 0.15625,0.15625 0 1 0 9.8704831,5.9302369 4.4462187,4.4462187 0 0 0 7.7117916,4.7275391 0.15625044,0.15625044 0 0 0 7.6808472,4.7236328 Z M 6.7076416,5.8024291 a 3.3078438,3.3078438 0 0 0 -0.50354,0.038513 0.15628693,0.15628693 0 1 0 0.047791,0.3088987 2.991,2.991 0 0 1 0.4557494,-0.034912 0.15625,0.15625 0 0 0 -4e-7,-0.3124997 z M 7.90979,6.0431519 A 0.15625,0.15625 0 0 0 7.7661744,6.1390381 0.15625,0.15625 0 0 0 7.8498534,6.3435059 2.946875,2.946875 0 0 1 8.8056641,6.9880372 0.15625572,0.15625572 0 1 0 9.0273438,6.7677612 3.2577188,3.2577188 0 0 0 7.9706422,6.0552978 0.15625,0.15625 0 0 0 7.90979,6.0431519 Z M 8.1746216,7.8553466 A 1.1244687,1.1244687 0 0 0 7.0584106,8.9246216 1.1251562,1.1251562 0 0 0 6.29187,10.815002 1.1163437,1.1163437 0 0 0 7.6788941,11.02179 0.17584375,0.17584375 0 0 1 7.8917237,11.05158 l 2.6664433,2.669922 a 0.17690625,0.17690625 0 0 1 0.02985,0.213623 1.125,1.125 0 0 0 1.723083,1.402404 1.1314375,1.1314375 0 0 0 0.37085,-0.780639 1.126,1.126 0 1 0 -0.615601,-2.100525 l 1.22e-4,1.25e-4 A 0.1765625,0.1765625 0 0 1 11.853947,12.42652 L 9.1856118,9.7547637 A 0.17765625,0.17765625 0 0 1 9.1557048,9.5414459 1.1244687,1.1244687 0 0 0 8.1746258,7.8553497 Z m 1.6421509,1.060669 A 0.15625,0.15625 0 0 0 9.6651,9.0722047 l -1.219e-4,1.25e-4 a 2.9895,2.9895 0 0 1 -0.046204,0.5245362 0.15625,0.15625 0 0 0 0.1262818,0.1812744 0.158,0.158 0 0 0 0.02771,0.00244 A 0.15625,0.15625 0 0 0 9.9263912,9.6517966 3.3016563,3.3016563 0 0 0 9.9776,9.0722047 0.15625,0.15625 0 0 0 9.8167725,8.9160156 Z m -6.2227784,6.25e-5 a 0.15625,0.15625 0 0 0 -0.15625,0.15625 3.2940938,3.2940938 0 0 0 0.059326,0.6235963 0.15625,0.15625 0 0 0 0.1531372,0.1265869 0.15465625,0.15465625 0 0 0 0.029846,-0.00287 0.15625,0.15625 0 0 0 0.1237793,-0.1830447 2.9820313,2.9820313 0 0 1 -0.053772,-0.56427 0.15625,0.15625 0 0 0 -0.1560668,-0.15625 z m -1.1930542,6.25e-5 A 0.15625,0.15625 0 0 0 2.2492676,9.0723294 4.4960312,4.4960312 0 0 0 2.3302616,9.9226103 0.15627752,0.15627753 0 0 0 2.6371464,9.863345 4.18175,4.18175 0 0 1 2.5617684,9.0723294 0.15625,0.15625 0 0 0 2.4009399,8.9161406 Z m 8.6041871,0 a 0.15625,0.15625 0 0 0 -0.151672,0.1561888 4.1859375,4.1859375 0 0 1 -0.06506,0.7353515 0.15625,0.15625 0 0 0 0.126343,0.1812135 0.154625,0.154625 0 0 0 0.02765,0.00256 0.15625,0.15625 0 0 0 0.153625,-0.1287841 4.4951875,4.4951875 0 0 0 0.06995,-0.7903444 0.15625,0.15625 0 0 0 -0.160828,-0.1561887 z M 3.9731444,10.411868 a 0.15625,0.15625 0 0 0 -0.1329953,0.233215 3.2731875,3.2731875 0 0 0 0.6663206,0.845337 0.15625,0.15625 0 1 0 0.2103881,-0.231018 2.9625,2.9625 0 0 1 -0.6028441,-0.764831 0.15625,0.15625 0 0 0 -0.1408693,-0.0827 z m -1.1944579,0.276855 a 0.15625,0.15625 0 0 0 -0.1342773,0.221192 4.46625,4.46625 0 0 0 0.2556152,0.482666 0.15625872,0.15625872 0 0 0 0.2667237,-0.162842 4.1523125,4.1523125 0 0 1 -0.2376709,-0.44873 0.15625,0.15625 0 0 0 -0.1503907,-0.09229 z m 2.640381,1.060486 a 0.1563273,0.1563273 0 0 0 -0.069458,0.298462 3.25125,3.25125 0 0 0 0.7705687,0.241882 0.15625722,0.15625723 0 0 0 0.055786,-0.307495 2.9380938,2.9380938 0 0 1 -0.6964113,-0.21875 0.1563273,0.1563273 0 0 0 -0.060485,-0.0141 z m -1.9019166,0.04443 a 0.15625,0.15625 0 0 0 -0.1225587,0.262085 c 0.098281,0.109125 0.2031084,0.21463 0.3118897,0.313599 A 0.15627419,0.15627418 0 0 0 3.9169313,12.138248 C 3.8158375,12.046216 3.7181778,11.94806 3.6267091,11.84656 a 0.15625,0.15625 0 0 0 -0.1095582,-0.05292 z m 4.0612182,0.111816 a 0.15625,0.15625 0 0 0 -0.044006,0.0072 2.9625,2.9625 0 0 1 -0.8267212,0.117065 0.15625,0.15625 0 0 0 0,0.3125 v -6.3e-5 a 3.273375,3.273375 0 0 0 0.9139403,-0.129455 0.15625,0.15625 0 0 0 -0.043213,-0.307251 z m -2.5505982,0.970398 a 0.15625,0.15625 0 0 0 -0.061768,0.301575 4.43575,4.43575 0 0 0 0.9406738,0.28125 0.15625,0.15625 0 0 0 0.055786,-0.307434 l 6.1e-5,1.25e-4 a 4.1239375,4.1239375 0 0 1 -0.8743285,-0.261414 0.15625,0.15625 0 0 0 -0.060425,-0.0141 z m 2.8827516,0.171018 a 0.15625,0.15625 0 0 0 -0.044006,0.0072 v -6.2e-5 a 4.1524687,4.1524687 0 0 1 -1.1588746,0.164123 0.15625,0.15625 0 0 0 0,0.3125 4.463625,4.463625 0 0 0 1.2460937,-0.176575 0.15625,0.15625 0 0 0 -0.043213,-0.307188 z" fill="#fc9c9c" fill-opacity="0.996078" stroke-width="0.0312501"/></svg>
