<svg viewBox="0 0 16 16" width="16" height="16" xmlns="http://www.w3.org/2000/svg"><path d="M 0.24215214,0 A 0.24220814,0.24781481 0 0 0 0,0.24732348 V 12.564453 a 0.24220814,0.24781481 0 0 0 0.24215214,0.247324 H 1.9278139 A 0.24220814,0.24781481 0 0 0 2.169966,12.564453 V 2.64511 A 0.60452489,0.61851852 0 0 1 2.7741799,2.0273437 H 12.290229 A 0.24220814,0.24781481 0 0 0 12.532381,1.7800926 V 0.24732348 A 0.24220814,0.24781481 0 0 0 12.290229,0 Z M 3.4862838,2.8192274 A 0.56304072,0.57607407 0 0 0 2.9238545,3.3946037 v 9.2107923 a 0.56307692,0.57611111 0 0 0 0.5624293,0.575377 h 9.0274322 a 0.56307692,0.57611111 0 0 0 0.56243,-0.575377 V 3.3946037 A 0.56304072,0.57607407 0 0 0 12.513716,2.8192274 Z M 14.072186,3.1882233 A 0.24220814,0.24781481 0 0 0 13.830034,3.435547 V 13.35489 A 0.60452489,0.61851852 0 0 1 13.22582,13.972656 H 3.7097709 a 0.24220814,0.24781481 0 0 0 -0.2421521,0.247251 v 1.53277 A 0.24220814,0.24781481 0 0 0 3.7097709,16 H 15.757848 A 0.24220814,0.24781481 0 0 0 16,15.752677 V 3.435547 A 0.24220814,0.24781481 0 0 0 15.757848,3.1882233 Z M 3.7987131,4.6886574 a 0.18099548,0.18518519 0 0 1 0.1756931,0.185113 v 1.0039785 a 0.1809955,0.18518521 0 0 1 -0.361991,0 V 4.8737704 a 0.18099548,0.18518519 0 0 1 0.1862979,-0.185113 z m 0,1.9604311 a 0.18099548,0.18518519 0 0 1 0.1756931,0.185113 v 4.0176505 a 0.1809955,0.18518521 0 0 1 -0.361991,0 V 6.8342015 a 0.18099548,0.18518519 0 0 1 0.1862979,-0.185113 z" stroke-width="0.0366157" fill="#fc9c9c" fill-opacity="0.99607843" /></svg>
